<svg xmlns="http://www.w3.org/2000/svg" fill="none" viewBox="0 0 200 55">
  <path d="M0 0h200v55H0z" />
  <path d="M-110-48h1880v960H-110z" />
  <path fill="url(#a)"
    d="M106.15 9.306 94.95.246002 72.774 18.104 61.081 8.688l-11.199 9.019 22.87 18.418.022-.017.021.017L106.15 9.306Z" />
  <path fill="url(#b)" d="M72.774 54.585 49.882 36.109V17.707l22.892 18.401v18.477Z" />
  <path fill="url(#c)" d="M106.15 27.781 72.774 54.585V36.109L106.15 9.306v18.475Z" />
  <g fill="#231F20">
    <path
      d="M.00012207 18.3725H10.5404v2.896H3.25249v4.1068h6.76561v2.896H3.25249v6.7183H.00012207V18.3725ZM13.5313 32.0936h4.2016V21.2685h-4.2016v-2.896h11.6798v2.896h-4.2256v10.8251h4.2256v2.8961H13.5313v-2.8961Zm18.7774-5.6263-4.7-8.0948h3.798l2.4212 4.51.5462 1.2111.5223-1.2111 2.4689-4.51h3.6794l-4.7714 8.1187 4.914 8.4985h-3.7984l-2.5399-4.7478-.641-1.282-.6171 1.282-2.6587 4.7478h-3.6797l5.0562-8.5224Z" />
    <path fill-rule="evenodd"
      d="M116.475 18.2418c-.799.0714-1.531.1702-2.196.2965v16.4514h3.252v-5.7211c.13.0223.261.0382.392.0474.182.016.368.0279.558.0354.19.0082.372.0123.546.0123h.38c.806.0022 1.608-.1057 2.385-.3206.745-.2024 1.443-.5492 2.054-1.0208.61-.4775 1.105-1.086 1.448-1.7805.384-.8114.571-1.7019.546-2.5992.042-.9768-.175-1.9472-.629-2.8132-.391-.6904-.95-1.2703-1.626-1.6856-.689-.4121-1.451-.6863-2.244-.8072-.82-.1333-1.649-.2008-2.48-.2016-.792-.0001-1.587.0354-2.386.1068Zm1.745 2.7299c.285-.0239.585-.0358.902-.0358.406-.0004.812.0394 1.211.1187.376.072.735.2172 1.056.4275.311.2088.568.4898.748.8191.203.3998.301.8452.284 1.2936.022.515-.08 1.0277-.296 1.4956-.182.3619-.456.6692-.796.8905-.343.218-.726.3671-1.127.439-.419.0792-.844.1188-1.27.1184h-.297c-.134 0-.273-.0034-.415-.0116-.143-.008-.277-.0198-.404-.0355-.096-.0104-.191-.0263-.285-.0477v-5.3889c.174-.0317.404-.0594.689-.0829Z"
      clip-rule="evenodd" />
    <path
      d="M128.451 18.3725h10.896v2.896h-7.644v3.8693h7.051v2.896h-7.051v4.0598h7.763v2.896h-11.015V18.3725Zm23.098 7.7626.119-2.5877h-.143l-2.659 4.3443h-.569l-2.778-4.3443h-.119l.143 2.3263v9.116h-3.086V18.3725h3.3l2.848 4.6052h.095l2.825-4.6052h3.276v16.6172h-3.252v-8.8546Z" />
    <path fill-rule="evenodd"
      d="M157.697 23.049c-.265 1.192-.393 2.4107-.38 3.6319-.009 1.1716.102 2.341.333 3.4897.185.9699.551 1.8961 1.08 2.7302.487.7491 1.157 1.3618 1.946 1.7802.902.4509 1.901.6711 2.909.641 1.864.1187 3.654-.7513 4.712-2.2909 1.138-1.9149 1.68-4.1259 1.555-6.3502.009-1.1721-.106-2.3419-.345-3.4897-.192-.9694-.563-1.8949-1.092-2.7299-.484-.747-1.15-1.3594-1.934-1.7805-1.791-.8373-3.857-.8547-5.662-.0474-.783.3954-1.456.9785-1.959 1.6972-.559.8225-.954 1.7456-1.163 2.7184Zm3.146 5.8873c-.074-.7495-.11-1.5023-.107-2.2554-.067-1.4564.134-2.9128.593-4.2965.344-.9326 1.265-1.5239 2.256-1.4485.545-.0277 1.082.1362 1.519.4633.395.3304.694.7608.866 1.2462.212.5885.34 1.2038.38 1.8279.056.6966.083 1.4325.083 2.2076.007.8525-.037 1.7045-.13 2.5518-.06.618-.217 1.2227-.463 1.7925-.184.4301-.489.7972-.879 1.0565-.417.2434-.894.3628-1.376.3443-.532.0269-1.057-.1326-1.484-.451-.389-.3243-.684-.7464-.855-1.2227-.214-.585-.349-1.1956-.403-1.816Z"
      clip-rule="evenodd" />
    <path
      d="M181.223 28.0339h-5.366v6.9558h-3.252V18.3725h3.252v6.7654h5.366v-6.7654h3.252v16.6172h-3.252v-6.9558Zm7.952 4.3443h2.706V20.9836h-2.279v2.8725h-2.611v-5.4836H200v5.4836h-2.611v-2.8725h-2.255v11.3946h2.682v2.6115h-8.641v-2.6115Z" />
  </g>
  <defs>
    <linearGradient id="a" x1="49.8587" x2="49.7741" y1=".0818316" y2="36.089" gradientUnits="userSpaceOnUse">
      <stop stop-color="#E07053" />
      <stop offset="1" stop-color="#FF8363" />
    </linearGradient>
    <linearGradient id="b" x1="38.0412" x2="79.3601" y1="45.2085" y2="69.8052" gradientUnits="userSpaceOnUse">
      <stop stop-color="#FF6640" />
      <stop offset="1" stop-color="#D94B27" />
    </linearGradient>
    <linearGradient id="c" x1="79.2852" x2="28.3639" y1="-11.9556" y2="31.7379" gradientUnits="userSpaceOnUse">
      <stop stop-color="#EB4015" />
      <stop offset="1" stop-color="#D94B27" />
    </linearGradient>
  </defs>
</svg>